<?xml version="1.0" encoding="UTF-8"?>
<svg width="14px" height="14px" viewBox="0 0 14 14" version="1.1" xmlns="http://www.w3.org/2000/svg" xmlns:xlink="http://www.w3.org/1999/xlink">
    <!-- Generator: Sketch 50.2 (55047) - http://www.bohemiancoding.com/sketch -->
    <title>ButtonArchive</title>
    <desc>Created with Sketch.</desc>
    <defs></defs>
    <g id="WorkPlace" stroke="none" stroke-width="1" fill="none" fill-rule="evenodd">
        <g id="Work-Place-Condition-1-|-Start-Page" transform="translate(-546.000000, -508.000000)">
            <g id="ButtonArchive" transform="translate(546.000000, 508.000000)">
                <rect id="Rectangle-13" fill="#E7E7E7" x="0" y="0" width="14" height="14"></rect>
                <g id="Archive" transform="translate(3.000000, 2.000000)" stroke="#535353">
                    <path d="M1,0.5 C0.723857625,0.5 0.5,0.723857625 0.5,1 L0.5,9.9810216 C0.5,10.0890623 0.53499547,10.1941966 0.599746943,10.2806839 C0.765245858,10.5017376 1.07860863,10.5467736 1.29966229,10.3812747 L3.40067541,8.80828377 C3.75595551,8.54229192 4.24404449,8.54229192 4.59932459,8.80828377 L6.70033771,10.3812747 C6.78682498,10.4460261 6.89195926,10.4810216 7,10.4810216 C7.27614237,10.4810216 7.5,10.257164 7.5,9.9810216 L7.5,1 C7.5,0.723857625 7.27614237,0.5 7,0.5 L1,0.5 Z" id="Rectangle-8"></path>
                </g>
            </g>
        </g>
    </g>
</svg>