<?xml version="1.0" encoding="UTF-8"?>
<svg width="14px" height="14px" viewBox="0 0 14 14" version="1.1" xmlns="http://www.w3.org/2000/svg" xmlns:xlink="http://www.w3.org/1999/xlink">
    <!-- Generator: Sketch 50.2 (55047) - http://www.bohemiancoding.com/sketch -->
    <title>ButtonEdit</title>
    <desc>Created with Sketch.</desc>
    <defs></defs>
    <g id="WorkPlace" stroke="none" stroke-width="1" fill="none" fill-rule="evenodd">
        <g id="Work-Place-Condition-1-|-Start-Page" transform="translate(-516.000000, -508.000000)">
            <g id="ButtonEdit" transform="translate(516.000000, 508.000000)">
                <rect id="Rectangle-13" fill="transparent" x="0" y="0" width="14" height="14"></rect>
                <g id="Edit" transform="translate(6.656677, 7.460837) rotate(224.000000) translate(-6.656677, -7.460837) translate(4.156677, 0.960837)" stroke="#535353">
                    <path d="M2.48665225,0.996563558 L0.582114187,3.1977906 C0.573309115,3.20796733 0.568463155,3.22097447 0.568463155,3.23443163 L0.568463155,12.3114163 C0.568463155,12.466056 0.693823425,12.5914163 0.848463155,12.5914163 L4.55637443,12.5914163 C4.71101416,12.5914163 4.83637443,12.466056 4.83637443,12.3114163 C4.83637443,12.3105884 4.83637076,12.3097605 4.83636342,12.3089326 L4.75585677,3.23354463 C4.75574217,3.22062571 4.75116421,3.20814379 4.74289877,3.19821434 L2.91359604,1.00063352 C2.81466242,0.881782422 2.63811301,0.86563612 2.51926192,0.964569746 C2.50753872,0.974328324 2.49663255,0.985028533 2.48665225,0.996563558 Z" id="Path-15"></path>
                    <path d="M0.325742017,9.47475793 L4.91331693,9.47475793" id="Path-16"></path>
                </g>
            </g>
        </g>
    </g>
</svg>