<?xml version="1.0" encoding="UTF-8"?>
<svg width="14px" height="14px" viewBox="0 0 14 14" version="1.1" xmlns="http://www.w3.org/2000/svg" xmlns:xlink="http://www.w3.org/1999/xlink">
    <!-- Generator: Sketch 50.2 (55047) - http://www.bohemiancoding.com/sketch -->
    <title>ButtonShare</title>
    <desc>Created with Sketch.</desc>
    <defs></defs>
    <g id="WorkPlace" stroke="none" stroke-width="1" fill="none" fill-rule="evenodd">
        <g id="Work-Place-Condition-1-|-Start-Page" transform="translate(-531.000000, -508.000000)">
            <g id="ButtonShare" transform="translate(531.000000, 508.000000)">
                <rect id="Rectangle-13" fill="transparent" x="0" y="0" width="14" height="14"></rect>
                <g id="Share" transform="translate(1.000000, 2.000000)" stroke="#535353" stroke-width="0.9">
                    <path d="M0.01985025,9.72253383 C0.222998802,7.16988675 0.949325521,5.30020053 2.19883041,4.11347518 C3.48306529,2.89376479 5.06857981,2.35478143 6.95537396,2.4965251 L6.95530325,2.4974664 C6.98018412,2.49933556 7.00207192,2.48115434 7.00479864,2.4563528 L7.26593386,0.0811334923 C7.26867158,0.0562318985 7.29107767,0.038264528 7.31597926,0.0410022471 C7.32439497,0.0419274822 7.33238376,0.0451895579 7.33904176,0.0504193907 L11.9548744,3.67613796 C11.9745751,3.69161275 11.9780008,3.72012807 11.962526,3.73982872 C11.9603477,3.74260195 11.9578533,3.7451117 11.9550936,3.7473071 L7.33909715,7.41934343 C7.31949217,7.43493924 7.29095629,7.43168917 7.27536048,7.41208419 C7.27004311,7.40539989 7.26672104,7.39735009 7.26577659,7.38886113 L7.00365932,5.03867146 C7.00118813,5.01645983 6.98269894,4.9994824 6.96035758,4.99891028 C5.36742323,4.95811839 4.01416564,5.28551078 2.9005848,5.98108747 C1.8269006,6.65174349 0.895815078,7.90606805 0.107328241,9.74406115 L0.107858256,9.74428852 C0.0978561524,9.76760381 0.0708470705,9.77839628 0.047531783,9.76839417 C0.0294241062,9.7606261 0.018287113,9.7421753 0.01985025,9.72253383 Z" id="Path-13"></path>
                </g>
            </g>
        </g>
    </g>
</svg>