<?xml version="1.0" encoding="UTF-8"?>
<svg width="14px" height="14px" viewBox="0 0 14 14" version="1.1" xmlns="http://www.w3.org/2000/svg" xmlns:xlink="http://www.w3.org/1999/xlink">
    <!-- Generator: Sketch 50.2 (55047) - http://www.bohemiancoding.com/sketch -->
    <title>ButtonArchive</title>
    <desc>Created with Sketch.</desc>
    <defs></defs>
    <g id="WorkPlace" stroke="none" stroke-width="1" fill="none" fill-rule="evenodd">
        <g id="Work-Place-Condition-1-|-Start-Page" transform="translate(-546.000000, -508.000000)">
            <g id="ButtonArchive" transform="translate(546.000000, 508.000000)">
                <rect id="Rectangle-13" fill="transparent" x="0" y="0" width="14" height="14"></rect>
                <g id="Archive" transform="translate(3.000000, 2.000000)" stroke="#535353">
                    <path d="M1,0.5 C0.723857625,0.5 0.5,0.723857625 0.5,1 L0.5,8.98567448 C0.5,9.08590944 0.530126414,9.18383063 0.586469793,9.266731 C0.741693024,9.49511742 1.05267009,9.55442791 1.28105652,9.39920468 L3.43788696,7.93331114 C3.77715795,7.70272502 4.22284205,7.70272502 4.56211304,7.93331114 L6.71894348,9.39920468 C6.80184385,9.45554806 6.89976504,9.48567448 7,9.48567448 C7.27614237,9.48567448 7.5,9.26181685 7.5,8.98567448 L7.5,1 C7.5,0.723857625 7.27614237,0.5 7,0.5 L1,0.5 Z" id="Rectangle-8"></path>
                </g>
            </g>
        </g>
    </g>
</svg>