<?xml version="1.0" encoding="UTF-8"?>
<svg width="14px" height="14px" viewBox="0 0 14 14" version="1.1" xmlns="http://www.w3.org/2000/svg" xmlns:xlink="http://www.w3.org/1999/xlink">
    <!-- Generator: Sketch 50.2 (55047) - http://www.bohemiancoding.com/sketch -->
    <title>ButtonDelete</title>
    <desc>Created with Sketch.</desc>
    <defs></defs>
    <g id="WorkPlace" stroke="none" stroke-width="1" fill="none" fill-rule="evenodd">
        <g id="Work-Place-Condition-1-|-Start-Page" transform="translate(-485.000000, -508.000000)">
            <g id="ButtonDelete" transform="translate(492.000000, 515.000000) rotate(270.000000) translate(-492.000000, -515.000000) translate(485.000000, 508.000000)">
                <rect id="Rectangle-13" fill="transparent" x="0" y="0" width="14" height="14"></rect>
                <path d="M6.93431927,8.75789106 L3.71143976,11.9807706 C3.67238733,12.019823 3.60907083,12.019823 3.5700184,11.9807706 L2.02928932,10.4400415 C1.99023689,10.4009891 1.99023689,10.3376726 2.02928932,10.2986201 L5.25216883,7.07574062 C5.29122126,7.03668819 5.29122126,6.9733717 5.25216883,6.93431927 L2.02928932,3.71143976 C1.99023689,3.67238733 1.99023689,3.60907083 2.02928932,3.5700184 L3.5700184,2.02928932 C3.60907083,1.99023689 3.67238733,1.99023689 3.71143976,2.02928932 L6.93431927,5.25216883 C6.9733717,5.29122126 7.03668819,5.29122126 7.07574062,5.25216883 L10.2986201,2.02928932 C10.3376726,1.99023689 10.4009891,1.99023689 10.4400415,2.02928932 L11.9807706,3.5700184 C12.019823,3.60907083 12.019823,3.67238733 11.9807706,3.71143976 L8.75789106,6.93431927 C8.71883863,6.9733717 8.71883863,7.03668819 8.75789106,7.07574062 L11.9807706,10.2986201 C12.019823,10.3376726 12.019823,10.4009891 11.9807706,10.4400415 L10.4400415,11.9807706 C10.4009891,12.019823 10.3376726,12.019823 10.2986201,11.9807706 L7.07574062,8.75789106 C7.03668819,8.71883863 6.9733717,8.71883863 6.93431927,8.75789106 Z" id="Path-22" stroke="#ffffff" stroke-width="0.9"></path>
            </g>
        </g>
    </g>
</svg>