<?xml version="1.0" encoding="UTF-8"?>
<svg width="10px" height="10px" viewBox="0 0 10 10" version="1.1" xmlns="http://www.w3.org/2000/svg" xmlns:xlink="http://www.w3.org/1999/xlink">
    <!-- Generator: Sketch 50.2 (55047) - http://www.bohemiancoding.com/sketch -->
    <title>Edit</title>
    <desc>Created with Sketch.</desc>
    <defs></defs>
    <g id="WorkPlace" stroke="none" stroke-width="1" fill="none" fill-rule="evenodd">
        <g id="Work-Place-Condition-1-|-Start-Page" transform="translate(-288.000000, -566.000000)" stroke="#9B9B9B" stroke-width="0.5">
            <g id="Edit" transform="translate(292.618971, 571.693015) rotate(224.000000) translate(-292.618971, -571.693015) translate(290.118971, 566.193015)">
                <path d="M2.30882865,0.0783727294 L0.537344809,2.15731752 C0.529790288,2.16618322 0.525641026,2.1774501 0.525641026,2.1890979 L0.525641026,10.7308772 C0.525641026,10.866187 0.635331262,10.9758772 0.770641026,10.9758772 L4.22720919,10.9758772 C4.36251895,10.9758772 4.47220919,10.866187 4.47220919,10.7308772 C4.47220919,10.7301637 4.47220607,10.7294503 4.47219984,10.7287368 L4.39758683,2.18832898 C4.39748916,2.17714873 4.39357089,2.16633809 4.38648246,2.15769159 L2.68477853,0.0819472871 C2.59899362,-0.0226934394 2.44462315,-0.0379791 2.33998242,0.0478058085 C2.32870916,0.0570476784 2.31828321,0.0672772316 2.30882865,0.0783727294 Z" id="Path-15" fill="#9B9B9B"></path>
                <path d="M0.280636128,9.24611893 L4.52263064,9.24611893" id="Path-16"></path>
            </g>
        </g>
    </g>
</svg>